<?xml version="1.0" encoding="UTF-8"?>
<svg width="300" height="300" viewBox="0 0 300 300" xmlns="http://www.w3.org/2000/svg">
    <!-- 背景 -->
    <rect width="300" height="300" fill="#E3F2FD"/>
    
    <!-- 太阳 -->
    <circle cx="50" cy="50" r="30" fill="#FFEB3B" stroke="#FBC02D" stroke-width="2"/>
    <path d="M50 10 L50 0 M50 90 L50 100 M10 50 L0 50 M90 50 L100 50" stroke="#FBC02D" stroke-width="2"/>
    
    <!-- 房子 -->
    <rect x="100" y="150" width="100" height="80" fill="#FF5722" stroke="#E64A19" stroke-width="2"/>
    <path d="M100 150 L150 100 L200 150" fill="#FF5722" stroke="#E64A19" stroke-width="2"/>
    <rect x="130" y="180" width="20" height="30" fill="#795548" stroke="#5D4037" stroke-width="2"/>
    <rect x="160" y="180" width="20" height="30" fill="#795548" stroke="#5D4037" stroke-width="2"/>
    
    <!-- 树 -->
    <rect x="220" y="180" width="20" height="50" fill="#795548" stroke="#5D4037" stroke-width="2"/>
    <circle cx="230" cy="150" r="30" fill="#4CAF50" stroke="#2E7D32" stroke-width="2"/>
    
    <!-- 云朵 -->
    <path d="M180 40 Q200 30 220 40 Q240 30 260 40 Q260 60 240 70 Q220 80 200 70 Q180 80 160 70 Q140 60 140 40 Q160 30 180 40" fill="#FFFFFF" stroke="#BDBDBD" stroke-width="2"/>
</svg> 